<svg xmlns="http://www.w3.org/2000/svg" width="48" height="48" viewBox="0 0 48 48"><defs><clipPath id="sov1a"><path fill="#fff" d="M24 0c13.255 0 24 10.744 24 23.999 0 13.255-10.745 24-24 24s-24-10.745-24-24 10.745-24 24-24z"/></clipPath></defs><g><g><path fill="#e0e0e0" d="M24 0c13.255 0 24 10.744 24 23.999 0 13.255-10.745 24-24 24s-24-10.745-24-24 10.745-24 24-24z"/><path fill="none" stroke="#fff" stroke-linecap="round" stroke-linejoin="round" stroke-miterlimit="20" stroke-width="6" d="M24 0c13.255 0 24 10.744 24 23.999 0 13.255-10.745 24-24 24s-24-10.745-24-24 10.745-24 24-24z" clip-path="url(&quot;#sov1a&quot;)"/></g></g></svg>